<svg xmlns="http://www.w3.org/2000/svg" width="48" height="48" fill="none"><mask id="a" fill="#fff"><rect width="38" height="36" x="5" y="6" rx="2"/></mask><rect width="38" height="36" x="5" y="6" stroke="#333" stroke-width="8" mask="url(#a)" rx="2"/><circle cx="15" cy="16" r="2" fill="#333"/><circle cx="15" cy="24" r="2" fill="#333"/><circle cx="15" cy="32" r="2" fill="#333"/><path fill="#333" d="M34.414 17.414A2 2 0 0 0 33 14H21a2 2 0 0 0 0 4h12a2 2 0 0 0 1.414-.586ZM34.414 25.414A2 2 0 0 0 33 22H21a2 2 0 0 0 0 4h12a2 2 0 0 0 1.414-.586ZM34.414 33.414A2 2 0 0 0 33 30H21a2 2 0 0 0 0 4h12a2 2 0 0 0 1.414-.586Z"/></svg>