<svg xmlns="http://www.w3.org/2000/svg" width="48" height="48" fill="none"><g clip-path="url(#a)"><path fill="#333" d="M38.4 37.4C34.8 41 29.9 43 24.9 43c-1.6 0-3.2-.2-4.8-.6-1.1-.3-1.7-1.4-1.4-2.4.3-1.1 1.4-1.7 2.4-1.4 5.2 1.4 10.7-.1 14.5-3.9 5.9-5.9 5.9-15.4.1-21.2-2.9-3-6.6-4.5-10.6-4.5s-7.8 1.6-10.6 4.4c-2.9 2.9-4.5 6.8-4.4 10.8l1.6-1.6c.8-.8 2-.8 2.8 0 .8.8.8 2 0 2.8l-5 5c-.5.4-1 .6-1.5.6s-1-.2-1.4-.6l-5-5c-.8-.8-.8-2 0-2.8.8-.8 2-.8 2.8 0L6 24.2c0-5 2-9.9 5.6-13.6C15.2 7 20 5 25 5c5.1 0 9.8 2 13.4 5.5 7.5 7.4 7.4 19.5 0 26.9ZM24 14.1c-1.1 0-2 .9-2 2V24c0 .5.2 1 .6 1.4l5.6 5.6c.4.4.9.6 1.4.6.5 0 1-.2 1.4-.6.8-.8.8-2 0-2.8l-5-5v-7c0-1.2-.9-2.1-2-2.1Z"/></g><defs><clipPath id="a"><path fill="#fff" d="M0 0h48v48H0z"/></clipPath></defs></svg>